<svg width="900" height="600" viewBox="0 0 900 600" fill="none" xmlns="http://www.w3.org/2000/svg">
<path fill-rule="evenodd" clip-rule="evenodd" d="M247.478 157.748C204.789 157.748 169.866 192.64 169.866 235.293C169.866 277.946 204.789 312.838 247.478 312.838C256.042 312.838 263.056 319.846 263.056 328.403C263.056 336.959 256.042 343.967 247.478 343.967H206.867C186.041 343.967 169 360.994 169 381.801C169 402.608 186.041 419.635 206.867 419.635C224.878 419.635 239.616 434.36 239.616 452.356C239.616 485.189 266.503 512.052 299.364 512.052H650.106C692.796 512.052 727.718 477.16 727.718 434.507C727.718 391.854 692.796 356.962 650.106 356.962H642.598C634.034 356.962 627.02 349.963 627.02 341.398C627.02 332.841 634.025 325.833 642.598 325.833H693.133C713.959 325.833 731 308.807 731 287.999C731 267.218 714.002 250.209 693.211 250.165H652.548C634.536 250.165 619.798 235.44 619.798 217.445C619.798 184.612 592.912 157.748 560.05 157.748H247.478V157.748Z" fill="url(#paint0_linear_2_3)"/>
<path d="M594.947 90.241H298.763C292.007 90.241 286.531 95.7175 286.531 102.473V200.976C286.531 207.732 292.007 213.208 298.763 213.208H594.947C601.703 213.208 607.179 207.732 607.179 200.976V102.473C607.179 95.7175 601.703 90.241 594.947 90.241Z" fill="#55ACEE"/>
<path d="M541.027 188.304C550.913 188.304 558.927 180.29 558.927 170.404C558.927 160.518 550.913 152.504 541.027 152.504C531.141 152.504 523.127 160.518 523.127 170.404C523.127 180.29 531.141 188.304 541.027 188.304Z" fill="white"/>
<path fill-rule="evenodd" clip-rule="evenodd" d="M557.092 186.256C561.267 182.037 563.605 176.339 563.597 170.403C563.605 164.468 561.266 158.769 557.092 154.55C559.658 153.201 562.514 152.499 565.413 152.503C575.299 152.503 583.313 160.517 583.313 170.403C583.313 180.289 575.299 188.303 565.413 188.303C562.409 188.303 559.578 187.564 557.092 186.256Z" fill="white"/>
<path d="M465.534 118.259H327.002C319.265 118.259 312.993 124.531 312.993 132.268C312.993 140.005 319.265 146.277 327.002 146.277H465.534C473.271 146.277 479.543 140.005 479.543 132.268C479.543 124.531 473.271 118.259 465.534 118.259Z" fill="white"/>
<path d="M414.168 158.729H327.002C319.265 158.729 312.993 165.001 312.993 172.738C312.993 180.475 319.265 186.747 327.002 186.747H414.168C421.905 186.747 428.177 180.475 428.177 172.738C428.177 165.001 421.905 158.729 414.168 158.729Z" fill="white"/>
<path d="M594.947 404.019H298.763C292.007 404.019 286.531 409.495 286.531 416.251V514.754C286.531 521.51 292.007 526.986 298.763 526.986H594.947C601.703 526.986 607.179 521.51 607.179 514.754V416.251C607.179 409.495 601.703 404.019 594.947 404.019Z" fill="#25D366"/>
<path d="M541.027 502.081C550.913 502.081 558.927 494.067 558.927 484.181C558.927 474.295 550.913 466.281 541.027 466.281C531.141 466.281 523.127 474.295 523.127 484.181C523.127 494.067 531.141 502.081 541.027 502.081Z" fill="white"/>
<path fill-rule="evenodd" clip-rule="evenodd" d="M557.092 500.034C561.267 495.815 563.605 490.117 563.597 484.181C563.605 478.245 561.266 472.547 557.092 468.328C559.658 466.979 562.514 466.277 565.413 466.281C575.299 466.281 583.313 474.295 583.313 484.181C583.313 494.067 575.299 502.081 565.413 502.081C562.409 502.081 559.578 501.341 557.092 500.034V500.034Z" fill="white"/>
<path d="M465.534 432.036H327.002C319.265 432.036 312.993 438.308 312.993 446.045C312.993 453.782 319.265 460.054 327.002 460.054H465.534C473.271 460.054 479.543 453.782 479.543 446.045C479.543 438.308 473.271 432.036 465.534 432.036Z" fill="white"/>
<path d="M414.168 472.506H327.002C319.265 472.506 312.993 478.778 312.993 486.515C312.993 494.252 319.265 500.524 327.002 500.524H414.168C421.905 500.524 428.177 494.252 428.177 486.515C428.177 478.778 421.905 472.506 414.168 472.506Z" fill="white"/>
<path d="M679.16 247.13H382.976C376.22 247.13 370.744 252.606 370.744 259.362V357.865C370.744 364.621 376.22 370.097 382.976 370.097H679.16C685.916 370.097 691.392 364.621 691.392 357.865V259.362C691.392 252.606 685.916 247.13 679.16 247.13Z" fill="#FFFC00"/>
<path d="M625.239 345.193C635.125 345.193 643.139 337.179 643.139 327.293C643.139 317.407 635.125 309.393 625.239 309.393C615.353 309.393 607.339 317.407 607.339 327.293C607.339 337.179 615.353 345.193 625.239 345.193Z" fill="white"/>
<path fill-rule="evenodd" clip-rule="evenodd" d="M641.305 343.144C645.479 338.924 647.817 333.226 647.809 327.291C647.817 321.355 645.478 315.657 641.304 311.438C643.87 310.089 646.726 309.387 649.625 309.391C659.511 309.391 667.525 317.405 667.525 327.291C667.525 337.177 659.511 345.191 649.625 345.191C646.621 345.191 643.79 344.451 641.305 343.144V343.144Z" fill="white"/>
<path d="M549.747 275.147H411.215C403.478 275.147 397.206 281.419 397.206 289.156C397.206 296.893 403.478 303.165 411.215 303.165H549.747C557.484 303.165 563.756 296.893 563.756 289.156C563.756 281.419 557.484 275.147 549.747 275.147Z" fill="white"/>
<path d="M498.381 315.618H411.215C403.478 315.618 397.206 321.89 397.206 329.627C397.206 337.364 403.478 343.636 411.215 343.636H498.381C506.118 343.636 512.39 337.364 512.39 329.627C512.39 321.89 506.118 315.618 498.381 315.618Z" fill="white"/>
<path fill-rule="evenodd" clip-rule="evenodd" d="M318.87 270.926H315.26C314.387 270.926 313.684 270.216 313.684 269.351V265.741C313.684 264.868 314.395 264.165 315.26 264.165H318.87C319.735 264.165 320.446 264.875 320.446 265.741V269.351C320.446 269.558 320.406 269.763 320.327 269.954C320.248 270.146 320.132 270.32 319.985 270.466C319.839 270.612 319.665 270.728 319.474 270.807C319.282 270.886 319.077 270.927 318.87 270.926V270.926ZM306.355 270.926H302.745C301.88 270.926 301.169 270.216 301.169 269.351V265.741C301.169 264.868 301.88 264.165 302.745 264.165H306.355C307.22 264.165 307.931 264.875 307.931 265.741V269.351C307.931 270.216 307.22 270.926 306.355 270.926ZM293.831 270.926H290.222C289.356 270.926 288.646 270.216 288.646 269.351V265.741C288.646 264.868 289.356 264.165 290.222 264.165H293.831C294.697 264.165 295.407 264.875 295.407 265.741V269.351C295.407 269.558 295.367 269.763 295.288 269.954C295.209 270.146 295.093 270.32 294.946 270.466C294.8 270.612 294.626 270.728 294.435 270.807C294.243 270.886 294.038 270.927 293.831 270.926V270.926ZM281.315 270.926H277.705C276.84 270.926 276.13 270.216 276.13 269.351V265.741C276.13 264.868 276.84 264.165 277.705 264.165H281.315C282.188 264.165 282.898 264.875 282.898 265.741V269.351C282.894 269.769 282.725 270.168 282.429 270.463C282.133 270.757 281.733 270.924 281.315 270.926V270.926ZM268.799 270.926H265.189C264.316 270.926 263.606 270.216 263.606 269.351V265.741C263.606 264.868 264.316 264.165 265.189 264.165H268.799C269.664 264.165 270.374 264.875 270.374 265.741V269.351C270.374 270.216 269.664 270.926 268.799 270.926ZM305.895 257.278H302.285C301.42 257.278 300.71 256.568 300.71 255.703V252.085C300.71 251.22 301.42 250.51 302.285 250.51H305.895C306.768 250.51 307.471 251.22 307.471 252.085V255.695C307.472 255.903 307.432 256.108 307.354 256.301C307.275 256.493 307.159 256.667 307.012 256.815C306.866 256.962 306.692 257.078 306.5 257.158C306.308 257.237 306.103 257.278 305.895 257.278V257.278ZM293.38 257.278H289.77C288.904 257.278 288.194 256.568 288.194 255.703V252.085C288.194 251.22 288.904 250.51 289.77 250.51H293.38C294.245 250.51 294.955 251.22 294.955 252.085V255.695C294.956 255.903 294.917 256.108 294.838 256.301C294.759 256.493 294.644 256.667 294.497 256.814C294.351 256.962 294.177 257.078 293.985 257.158C293.793 257.237 293.588 257.278 293.38 257.278V257.278ZM280.864 257.278H277.254C276.381 257.278 275.671 256.568 275.671 255.703V252.085C275.671 251.22 276.381 250.51 277.254 250.51H280.864C281.729 250.51 282.439 251.22 282.439 252.085V255.695C282.439 256.568 281.729 257.278 280.864 257.278V257.278ZM293.831 285.586H290.222C289.356 285.586 288.646 284.876 288.646 284.011V280.401C288.646 279.528 289.356 278.825 290.222 278.825H293.831C294.697 278.825 295.407 279.535 295.407 280.401V284.011C295.407 284.218 295.367 284.423 295.288 284.614C295.209 284.806 295.093 284.98 294.946 285.126C294.8 285.272 294.626 285.388 294.435 285.467C294.243 285.546 294.038 285.587 293.831 285.586V285.586ZM281.315 285.586H277.705C276.84 285.586 276.13 284.876 276.13 284.011V280.401C276.13 279.528 276.84 278.825 277.705 278.825H281.315C282.188 278.825 282.898 279.535 282.898 280.401V284.011C282.894 284.429 282.725 284.828 282.429 285.123C282.133 285.417 281.733 285.584 281.315 285.586V285.586Z" fill="#E1E4E5"/>
<path d="M674.911 213.281C692.393 213.281 706.565 199.109 706.565 181.627C706.565 164.145 692.393 149.973 674.911 149.973C657.429 149.973 643.257 164.145 643.257 181.627C643.257 199.109 657.429 213.281 674.911 213.281Z" fill="url(#paint1_linear_2_3)"/>
<g clip-path="url(#clip0_2_3)">
<path d="M681 262.283V262.285C681.03 263.395 681.039 264.511 681.227 265.614C681.425 266.781 681.709 267.919 682.25 268.978C682.982 270.412 683.988 271.623 685.257 272.612C686.168 273.322 687.163 273.886 688.265 274.241C689.872 274.759 691.53 274.957 693.211 274.967C694.26 274.974 695.309 275 696.359 274.996C703.981 274.964 711.604 275.051 719.227 274.949C720.238 274.935 721.233 274.812 722.226 274.63C724.129 274.282 725.81 273.471 727.249 272.188C728.926 270.694 730.057 268.865 730.568 266.658C730.902 265.215 730.986 263.751 731 262.282V261.989C731 261.876 730.957 237.03 730.953 236.702C730.942 235.8 730.875 234.905 730.706 234.017C730.5 232.935 730.209 231.881 729.691 230.903C729.143 229.869 728.458 228.939 727.61 228.127C726.311 226.883 724.812 226.002 723.067 225.537C721.491 225.116 719.883 225.023 718.263 225.025C718.261 225.024 718.254 225.008 718.254 225H693.738C693.738 225.008 693.737 225.017 693.737 225.025C692.818 225.042 691.897 225.035 690.982 225.148C689.981 225.272 688.988 225.46 688.04 225.81C686.546 226.362 685.248 227.222 684.14 228.37C682.884 229.67 681.999 231.174 681.529 232.926C681.11 234.488 681.019 236.082 681.016 237.687" fill="#FFFC00"/>
<path d="M706.227 267.186C706.123 267.186 706.024 267.182 705.949 267.178C705.889 267.184 705.827 267.186 705.765 267.186C703.584 267.186 702.125 266.155 700.838 265.245C699.915 264.594 699.045 263.979 698.025 263.81C697.525 263.727 697.027 263.685 696.546 263.685C695.679 263.685 694.993 263.819 694.493 263.917C694.185 263.977 693.92 264.028 693.715 264.028C693.5 264.028 693.239 263.981 693.13 263.61C693.044 263.317 692.982 263.033 692.922 262.76C692.773 262.077 692.664 261.66 692.409 261.621C689.672 261.199 688.056 260.578 687.734 259.825C687.7 259.746 687.681 259.666 687.677 259.588C687.664 259.363 687.823 259.167 688.044 259.13C690.217 258.772 692.149 257.625 693.787 255.718C695.056 254.242 695.679 252.831 695.746 252.675C695.749 252.668 695.752 252.661 695.756 252.654C696.071 252.014 696.134 251.461 695.943 251.011C695.59 250.18 694.423 249.81 693.65 249.565C693.458 249.504 693.276 249.447 693.132 249.389C692.447 249.119 691.32 248.548 691.471 247.76C691.58 247.185 692.341 246.784 692.956 246.784C693.126 246.784 693.278 246.814 693.405 246.874C694.1 247.199 694.725 247.364 695.262 247.364C695.931 247.364 696.254 247.11 696.332 247.038C696.313 246.681 696.289 246.304 696.266 245.948L696.266 245.943C696.109 243.449 695.913 240.345 696.708 238.564C699.087 233.236 704.131 232.821 705.62 232.821C705.659 232.821 706.268 232.815 706.268 232.815C706.296 232.815 706.326 232.814 706.357 232.814C707.85 232.814 712.904 233.229 715.284 238.561C716.079 240.343 715.883 243.45 715.726 245.947L715.718 246.066C715.697 246.405 715.677 246.726 715.66 247.037C715.733 247.105 716.029 247.338 716.63 247.362C717.143 247.342 717.731 247.178 718.38 246.875C718.581 246.78 718.802 246.761 718.953 246.761C719.181 246.761 719.413 246.805 719.606 246.886L719.616 246.89C720.167 247.085 720.527 247.475 720.535 247.885C720.542 248.267 720.258 248.838 718.86 249.389C718.717 249.446 718.535 249.504 718.342 249.565C717.568 249.81 716.402 250.18 716.049 251.01C715.858 251.461 715.921 252.014 716.236 252.654C716.24 252.661 716.243 252.668 716.246 252.675C716.344 252.903 718.697 258.265 723.948 259.129C724.169 259.166 724.328 259.363 724.315 259.587C724.311 259.668 724.291 259.748 724.257 259.827C723.937 260.575 722.321 261.196 719.584 261.618C719.327 261.658 719.219 262.072 719.071 262.752C719.01 263.032 718.947 263.307 718.862 263.596C718.782 263.868 718.605 264.001 718.321 264.001H718.278C718.093 264.001 717.83 263.967 717.499 263.902C716.921 263.79 716.272 263.685 715.447 263.685C714.966 263.685 714.468 263.727 713.967 263.81C712.948 263.979 712.078 264.593 711.157 265.244C709.867 266.155 708.408 267.186 706.227 267.186Z" fill="white"/>
<path d="M706.357 233.253C707.762 233.253 712.602 233.631 714.883 238.74C715.634 240.423 715.441 243.47 715.287 245.918C715.263 246.307 715.239 246.684 715.219 247.043L715.211 247.198L715.314 247.313C715.356 247.359 715.747 247.767 716.615 247.8L716.629 247.801L716.643 247.801C717.217 247.779 717.864 247.601 718.566 247.272C718.67 247.224 718.807 247.2 718.953 247.2C719.119 247.2 719.295 247.231 719.441 247.292L719.463 247.301C719.831 247.43 720.091 247.673 720.095 247.893C720.097 248.018 720.004 248.466 718.699 248.981C718.572 249.031 718.404 249.085 718.209 249.146C717.36 249.415 716.076 249.822 715.644 250.839C715.401 251.412 715.468 252.088 715.842 252.848C715.996 253.207 718.421 258.664 723.877 259.563C723.876 259.589 723.869 259.617 723.854 259.65C723.762 259.868 723.174 260.62 719.517 261.184C718.944 261.271 718.804 261.912 718.642 262.657C718.583 262.924 718.523 263.194 718.441 263.472C718.416 263.556 718.411 263.561 718.321 263.561C718.309 263.561 718.294 263.561 718.278 263.561C718.116 263.561 717.87 263.527 717.584 263.471C717.065 263.37 716.355 263.246 715.447 263.246C714.94 263.246 714.419 263.29 713.895 263.377C712.776 263.563 711.866 264.206 710.902 264.887C709.607 265.801 708.269 266.747 706.228 266.747C706.138 266.747 706.051 266.744 705.964 266.74L705.941 266.739L705.918 266.74C705.868 266.745 705.818 266.747 705.766 266.747C703.725 266.747 702.386 265.802 701.092 264.887C700.128 264.206 699.217 263.563 698.098 263.377C697.575 263.29 697.053 263.246 696.547 263.246C695.639 263.246 694.928 263.385 694.41 263.486C694.124 263.542 693.877 263.589 693.716 263.589C693.583 263.589 693.581 263.582 693.553 263.486C693.471 263.208 693.411 262.932 693.352 262.666C693.189 261.92 693.049 261.275 692.477 261.187C688.82 260.623 688.232 259.87 688.139 259.653C688.125 259.619 688.118 259.589 688.117 259.564C693.572 258.666 695.996 253.209 696.151 252.848C696.526 252.089 696.592 251.413 696.348 250.839C695.917 249.823 694.633 249.415 693.785 249.146C693.589 249.085 693.421 249.031 693.294 248.981C692.192 248.546 691.853 248.107 691.903 247.842C691.961 247.535 692.493 247.224 692.957 247.224C693.061 247.224 693.152 247.241 693.22 247.272C693.973 247.625 694.661 247.804 695.264 247.804C696.212 247.804 696.634 247.363 696.679 247.313L696.782 247.198L696.774 247.044C696.755 246.685 696.731 246.308 696.706 245.92C696.552 243.472 696.36 240.426 697.11 238.743C699.383 233.653 704.199 233.26 705.621 233.26C705.656 233.26 706.274 233.254 706.274 233.254C706.299 233.254 706.327 233.253 706.357 233.253ZM706.357 232.375H706.355C706.323 232.375 706.292 232.375 706.263 232.376C706.032 232.378 705.652 232.382 705.618 232.382C704.785 232.382 703.119 232.5 701.329 233.289C700.305 233.74 699.385 234.35 698.593 235.102C697.648 235.998 696.879 237.103 696.307 238.386C695.468 240.264 695.667 243.429 695.827 245.971L695.828 245.975C695.845 246.248 695.863 246.532 695.879 246.809C695.756 246.866 695.557 246.925 695.263 246.925C694.79 246.925 694.227 246.774 693.592 246.476C693.405 246.389 693.191 246.345 692.955 246.345C692.577 246.345 692.178 246.457 691.832 246.66C691.396 246.916 691.115 247.277 691.038 247.677C690.988 247.942 690.99 248.465 691.572 248.996C691.892 249.289 692.363 249.558 692.97 249.798C693.129 249.86 693.318 249.92 693.518 249.984C694.213 250.204 695.264 250.538 695.538 251.183C695.677 251.509 695.618 251.94 695.361 252.46C695.355 252.474 695.348 252.488 695.342 252.502C695.278 252.652 694.68 254.005 693.454 255.432C692.757 256.243 691.989 256.921 691.174 257.448C690.178 258.091 689.101 258.511 687.973 258.697C687.529 258.77 687.213 259.164 687.238 259.613C687.245 259.742 687.276 259.871 687.328 259.995C687.329 259.996 687.329 259.997 687.329 259.998C687.509 260.416 687.924 260.772 688.6 261.086C689.425 261.469 690.659 261.791 692.268 262.043C692.35 262.198 692.434 262.586 692.492 262.852C692.554 263.135 692.617 263.425 692.708 263.734C692.806 264.068 693.061 264.467 693.715 264.467C693.962 264.467 694.247 264.412 694.577 264.348C695.06 264.253 695.721 264.124 696.546 264.124C697.003 264.124 697.477 264.164 697.954 264.243C698.873 264.396 699.665 264.956 700.582 265.603C701.925 266.551 703.444 267.625 705.765 267.625C705.828 267.625 705.892 267.622 705.955 267.618C706.031 267.622 706.126 267.625 706.227 267.625C708.549 267.625 710.068 266.551 711.408 265.604L711.41 265.602C712.328 264.955 713.119 264.396 714.038 264.243C714.515 264.164 714.989 264.124 715.446 264.124C716.234 264.124 716.858 264.224 717.415 264.333C717.778 264.404 718.061 264.439 718.277 264.439L718.298 264.439H718.32C718.799 264.439 719.15 264.177 719.284 263.718C719.373 263.416 719.437 263.132 719.499 262.845C719.554 262.596 719.641 262.196 719.723 262.04C721.333 261.788 722.567 261.466 723.392 261.083C724.066 260.771 724.481 260.415 724.661 259.998C724.715 259.873 724.747 259.744 724.754 259.612C724.779 259.164 724.462 258.769 724.019 258.696C719.003 257.87 716.744 252.72 716.65 252.501C716.644 252.487 716.637 252.473 716.63 252.459C716.374 251.939 716.315 251.509 716.454 251.181C716.727 250.537 717.778 250.204 718.473 249.983C718.674 249.92 718.864 249.86 719.022 249.797C719.707 249.527 720.196 249.234 720.519 248.902C720.904 248.505 720.979 248.125 720.974 247.876C720.963 247.274 720.502 246.739 719.77 246.478C719.522 246.375 719.24 246.321 718.953 246.321C718.758 246.321 718.468 246.348 718.194 246.476C717.607 246.751 717.082 246.901 716.63 246.922C716.39 246.91 716.222 246.858 716.113 246.808C716.127 246.573 716.142 246.332 716.158 246.081L716.164 245.973C716.325 243.429 716.524 240.262 715.686 238.382C715.111 237.094 714.339 235.987 713.391 235.089C712.595 234.337 711.672 233.727 710.645 233.276C708.857 232.492 707.191 232.375 706.357 232.375Z" fill="#020202"/>
</g>
<path d="M312 72.0184C310.197 72.678 308.26 73.1238 306.226 73.3242C308.302 72.2979 309.896 70.6727 310.646 68.7363C308.704 69.6865 306.552 70.3767 304.263 70.7487C302.429 69.137 299.816 68.1298 296.925 68.1298C291.373 68.1298 286.871 71.8428 286.871 76.4225C286.871 77.0724 286.961 77.7054 287.132 78.3123C278.777 77.9665 271.369 74.665 266.411 69.6478C265.546 70.8726 265.05 72.2971 265.05 73.8169C265.05 76.6939 266.825 79.2322 269.522 80.7193C267.874 80.6763 266.324 80.3033 264.969 79.6821C264.968 79.7167 264.968 79.7515 264.968 79.7864C264.968 83.8044 268.433 87.1562 273.032 87.9179C272.189 88.1075 271.301 88.2087 270.384 88.2087C269.736 88.2087 269.106 88.1568 268.492 88.06C269.772 91.3547 273.484 93.7523 277.883 93.8192C274.443 96.0434 270.108 97.3691 265.398 97.3691C264.587 97.3691 263.786 97.33 263 97.2534C267.449 99.6063 272.733 100.979 278.41 100.979C296.901 100.979 307.013 88.3427 307.013 77.3841C307.013 77.0245 307.003 76.6669 306.984 76.3113C308.948 75.1421 310.652 73.6815 312 72.0184Z" fill="#55ACEE"/>
<g clip-path="url(#clip1_2_3)">
<path d="M275.215 545.325L276.033 545.734C279.439 547.777 283.254 548.731 287.068 548.731C299.058 548.731 308.867 538.922 308.867 526.932C308.867 521.21 306.551 515.624 302.464 511.537C298.377 507.45 292.927 505.134 287.068 505.134C275.079 505.134 265.27 514.943 265.406 527.068C265.406 531.156 266.632 535.107 268.676 538.513L269.221 539.33L267.041 547.369L275.215 545.325Z" fill="#00E676"/>
<path d="M304.78 509.357C300.148 504.589 293.744 502 287.205 502C273.308 502 262.136 513.308 262.272 527.068C262.272 531.428 263.499 535.652 265.542 539.466L262 552.409L275.215 549.003C278.894 551.047 282.981 552.001 287.068 552.001C300.829 552.001 312.001 540.693 312.001 526.932C312.001 520.256 309.412 513.989 304.78 509.357ZM287.205 547.777C283.526 547.777 279.848 546.824 276.714 544.916L275.897 544.507L267.995 546.551L270.038 538.785L269.493 537.968C263.499 528.295 266.36 515.488 276.169 509.493C285.979 503.499 298.649 506.36 304.644 516.169C310.638 525.979 307.777 538.649 297.968 544.644C294.834 546.687 291.019 547.777 287.205 547.777ZM299.194 532.654L297.695 531.973C297.695 531.973 295.515 531.019 294.153 530.338C294.017 530.338 293.881 530.202 293.744 530.202C293.336 530.202 293.063 530.338 292.791 530.475C292.791 530.475 292.654 530.611 290.747 532.791C290.611 533.063 290.338 533.199 290.066 533.199H289.93C289.793 533.199 289.521 533.063 289.385 532.927L288.703 532.654C287.205 531.973 285.842 531.156 284.752 530.066C284.48 529.793 284.071 529.521 283.799 529.248C282.845 528.295 281.891 527.205 281.21 525.979L281.074 525.706C280.938 525.57 280.938 525.434 280.801 525.161C280.801 524.889 280.801 524.616 280.938 524.48C280.938 524.48 281.483 523.799 281.891 523.39C282.164 523.117 282.3 522.709 282.573 522.436C282.845 522.028 282.981 521.483 282.845 521.074C282.709 520.393 281.074 516.714 280.665 515.897C280.393 515.488 280.12 515.352 279.711 515.215H279.303C279.03 515.215 278.621 515.215 278.213 515.215C277.94 515.215 277.668 515.352 277.395 515.352L277.259 515.488C276.987 515.624 276.714 515.897 276.442 516.033C276.169 516.305 276.033 516.578 275.76 516.85C274.807 518.077 274.262 519.575 274.262 521.074C274.262 522.164 274.534 523.254 274.943 524.207L275.079 524.616C276.305 527.205 277.94 529.521 280.12 531.564L280.665 532.109C281.074 532.518 281.483 532.791 281.755 533.199C284.616 535.652 287.886 537.423 291.564 538.377C291.973 538.513 292.518 538.513 292.927 538.649C293.336 538.649 293.881 538.649 294.289 538.649C294.971 538.649 295.788 538.377 296.333 538.104C296.742 537.832 297.014 537.832 297.287 537.559L297.559 537.287C297.832 537.014 298.104 536.878 298.377 536.605C298.649 536.333 298.922 536.06 299.058 535.788C299.33 535.243 299.466 534.562 299.603 533.881C299.603 533.608 299.603 533.199 299.603 532.927C299.603 532.927 299.466 532.791 299.194 532.654Z" fill="white"/>
</g>
<defs>
<linearGradient id="paint0_linear_2_3" x1="461.983" y1="710.696" x2="455.095" y2="-227.751" gradientUnits="userSpaceOnUse">
<stop stop-color="white"/>
<stop offset="1" stop-color="#EEEEEE"/>
</linearGradient>
<linearGradient id="paint1_linear_2_3" x1="676.261" y1="248.776" x2="674.309" y2="81.105" gradientUnits="userSpaceOnUse">
<stop stop-color="white"/>
<stop offset="1" stop-color="#EEEEEE"/>
</linearGradient>
<clipPath id="clip0_2_3">
<rect width="50" height="50" fill="white" transform="translate(681 225)"/>
</clipPath>
<clipPath id="clip1_2_3">
<rect width="50" height="50.5859" fill="white" transform="translate(262 502)"/>
</clipPath>
</defs>
</svg>
